<?xml version="1.0" standalone="no"?>
<!DOCTYPE svg PUBLIC "-//W3C//DTD SVG 20010904//EN"
 "http://www.w3.org/TR/2001/REC-SVG-20010904/DTD/svg10.dtd">
<svg version="1.0" xmlns="http://www.w3.org/2000/svg"
 width="700.000000pt" height="156.000000pt" viewBox="0 0 700.000000 156.000000"
 preserveAspectRatio="xMidYMid meet">

<g transform="translate(0.000000,156.000000) scale(0.100000,-0.100000)"
fill="#000000" stroke="none">
<path d="M319 1493 c0 -5 0 -57 1 -118 1 -96 4 -113 22 -132 34 -37 116 -66
201 -71 l77 -5 0 167 0 166 -150 0 c-82 0 -150 -3 -151 -7z"/>
<path d="M740 1341 c0 -89 4 -161 9 -161 9 0 159 38 311 79 180 49 372 47 522
-3 76 -25 81 -21 49 42 -36 70 -89 120 -168 159 l-77 38 -323 3 -323 3 0 -160z"/>
<path d="M6030 1385 c-136 -44 -213 -201 -166 -341 44 -133 192 -210 328 -170
74 21 128 63 162 125 74 137 25 303 -109 370 -59 29 -152 36 -215 16z m143
-109 c100 -41 128 -177 53 -252 -99 -99 -256 -31 -256 111 0 78 71 152 148
154 12 1 37 -5 55 -13z"/>
<path d="M5155 1378 c-78 -29 -112 -78 -102 -149 9 -69 62 -110 187 -143 36
-10 75 -24 88 -32 28 -18 28 -50 0 -65 -28 -15 -151 -6 -202 16 -21 9 -39 15
-41 13 -6 -7 -45 -88 -45 -93 0 -13 91 -45 154 -54 81 -12 176 1 222 30 44 27
68 80 61 136 -8 74 -55 110 -197 153 -84 25 -100 34 -100 61 0 40 119 46 214
9 34 -13 30 -15 55 40 l21 45 -43 19 c-50 24 -224 32 -272 14z"/>
<path d="M2210 1130 l0 -250 60 0 60 0 0 250 0 250 -60 0 -60 0 0 -250z"/>
<path d="M2480 1130 l0 -250 60 0 60 0 0 140 c0 77 3 140 8 139 4 0 33 -40 64
-90 54 -83 60 -89 91 -89 39 0 54 14 121 115 l46 70 0 -143 0 -142 65 0 65 0
-2 248 -3 247 -56 3 -56 3 -83 -126 c-45 -69 -87 -125 -91 -125 -5 0 -46 56
-91 125 l-83 124 -57 1 -58 0 0 -250z"/>
<path d="M3200 1130 l0 -250 60 0 59 0 3 141 3 141 60 -88 c59 -87 61 -89 100
-89 39 0 41 2 100 89 l60 88 3 -141 3 -141 59 0 60 0 0 250 0 250 -55 0 -55 0
-81 -122 c-45 -68 -85 -126 -89 -131 -3 -4 -46 51 -93 123 l-87 130 -55 0 -55
0 0 -250z"/>
<path d="M3920 1130 l0 -250 210 0 210 0 0 50 0 49 -147 3 -148 3 0 45 0 45
123 3 122 3 0 49 0 49 -122 3 -123 3 0 45 0 45 148 3 147 3 0 49 0 50 -210 0
-210 0 0 -250z"/>
<path d="M4480 1130 l0 -250 60 0 60 0 0 75 0 75 53 0 53 0 55 -75 54 -74 68
-1 c37 0 67 2 67 5 0 3 -25 39 -55 80 -30 40 -55 77 -55 80 0 4 14 18 30 32
42 35 60 74 60 130 0 67 -33 122 -90 151 -40 20 -58 22 -202 22 l-158 0 0
-250z m310 120 c28 -28 25 -64 -6 -89 -22 -17 -41 -21 -105 -21 l-79 0 0 65 0
65 85 0 c72 0 88 -3 105 -20z"/>
<path d="M5617 1373 c-4 -3 -7 -116 -7 -250 l0 -243 60 0 60 0 0 250 0 250
-53 0 c-30 0 -57 -3 -60 -7z"/>
<path d="M6500 1130 l0 -250 60 0 59 0 3 145 3 146 124 -146 125 -145 48 0 48
0 0 250 0 250 -60 0 -59 0 -3 -147 -3 -146 -125 146 -125 146 -47 1 -48 0 0
-250z"/>
<path d="M1215 1204 c-11 -2 -45 -9 -75 -15 -30 -6 -129 -35 -220 -64 -208
-67 -309 -88 -435 -88 -167 -1 -292 39 -389 124 l-47 41 3 -493 c3 -485 3
-495 25 -534 12 -23 42 -60 66 -82 82 -76 49 -73 957 -71 l805 3 3 365 c1 226
-2 384 -8 414 -27 129 -135 274 -248 334 -85 45 -207 72 -322 71 -52 -1 -104
-3 -115 -5z m260 -135 c64 -12 143 -47 165 -74 8 -10 13 -35 12 -60 -4 -107
-82 -225 -184 -279 -29 -16 -55 -30 -57 -32 -2 -2 181 -269 222 -321 7 -10
-26 -13 -160 -13 l-169 0 -110 158 -111 157 -171 3 -172 2 0 120 0 120 276 0
276 0 34 34 c33 33 34 37 34 108 0 41 3 78 7 81 9 10 41 9 108 -4z m-967 -184
l112 1 0 -298 0 -298 -150 0 -150 0 0 305 0 306 38 -8 c20 -4 88 -8 150 -8z"/>
<path d="M5752 641 c-67 -23 -135 -88 -159 -151 -21 -53 -22 -139 -4 -194 31
-91 151 -176 250 -176 53 0 131 25 166 54 l30 25 -35 36 -36 36 -48 -21 c-54
-25 -102 -21 -155 11 -34 21 -70 87 -71 129 0 42 42 113 79 134 43 25 114 26
160 2 l34 -18 36 37 36 36 -29 23 c-35 29 -116 56 -165 56 -20 -1 -60 -9 -89
-19z"/>
<path d="M3450 641 c-82 -25 -120 -66 -120 -131 0 -86 39 -121 185 -165 100
-30 115 -39 115 -66 0 -46 -114 -57 -210 -20 -30 12 -56 21 -57 21 -4 0 -43
-92 -43 -100 0 -5 30 -19 68 -31 77 -26 204 -31 263 -11 55 19 100 72 106 124
8 82 -41 135 -162 173 -122 39 -135 46 -135 70 0 12 7 26 16 29 29 11 130 6
180 -9 27 -8 50 -15 50 -15 8 -1 34 94 28 100 -30 30 -220 50 -284 31z"/>
<path d="M2207 633 c-10 -9 -9 -491 1 -496 4 -2 33 -1 65 1 l57 4 0 74 0 74
53 -1 52 0 53 -74 52 -73 70 -4 c39 -2 70 0 70 3 0 3 -27 41 -59 85 l-60 79
33 27 c59 48 81 127 55 195 -15 42 -68 92 -109 103 -39 11 -323 14 -333 3z
m296 -114 c45 -24 50 -67 11 -98 -22 -17 -41 -21 -105 -21 l-79 0 0 65 0 65
76 0 c41 0 85 -5 97 -11z"/>
<path d="M2792 388 l3 -253 205 0 205 0 3 52 3 52 -148 3 -148 3 0 45 0 45
123 3 122 3 0 49 0 49 -122 3 -123 3 -3 42 -3 42 148 3 148 3 3 53 3 52 -211
0 -210 0 2 -252z"/>
<path d="M3892 388 l3 -253 175 -3 c96 -2 190 0 208 3 31 6 32 7 32 55 l0 49
-147 3 -148 3 0 45 0 45 123 3 122 3 0 49 0 49 -122 3 -123 3 -3 43 c-2 29 1
42 10 43 7 0 63 0 124 -1 61 -1 123 2 138 6 24 6 26 11 26 55 l0 49 -210 0
-210 0 2 -252z"/>
<path d="M4583 623 c-4 -10 -48 -121 -99 -248 -51 -126 -90 -234 -87 -238 3
-5 28 -7 55 -5 54 3 58 6 83 71 l15 37 114 0 113 0 21 -49 20 -49 56 -4 c40
-2 56 1 56 9 0 7 -43 121 -96 253 l-96 240 -74 0 c-62 0 -76 -3 -81 -17z m117
-193 c16 -40 30 -77 30 -81 0 -5 -29 -9 -65 -9 -72 0 -75 3 -50 64 8 20 22 52
30 73 8 20 17 34 20 31 2 -2 18 -37 35 -78z"/>
<path d="M5032 388 l3 -253 55 0 55 0 3 78 3 77 52 0 52 0 55 -75 c30 -41 60
-75 65 -75 60 -6 125 -4 125 3 0 5 -26 43 -57 85 l-56 75 25 21 c100 81 88
235 -21 293 -41 21 -56 23 -203 23 l-158 0 2 -252z m308 122 c20 -20 26 -56
12 -76 -15 -24 -54 -34 -126 -34 l-76 0 0 65 0 65 85 0 c72 0 88 -3 105 -20z"/>
<path d="M6152 388 l3 -253 55 0 55 0 3 98 3 97 119 0 120 0 0 -94 0 -94 56
-4 c31 -1 58 -1 60 1 2 2 4 116 4 253 l0 248 -60 0 -59 0 -3 -95 c-2 -52 -6
-95 -10 -95 -5 0 -57 0 -118 0 l-110 0 0 95 0 95 -60 0 -60 0 2 -252z"/>
</g>
</svg>
